<?xml version="1.0" encoding="utf-8"?>
<!-- Generator: Adobe Illustrator 19.0.0, SVG Export Plug-In . SVG Version: 6.00 Build 0)  -->
<!DOCTYPE svg PUBLIC "-//W3C//DTD SVG 1.1//EN" "http://www.w3.org/Graphics/SVG/1.1/DTD/svg11.dtd">
<svg version="1.1" id="Layer_1" xmlns="http://www.w3.org/2000/svg" xmlns:xlink="http://www.w3.org/1999/xlink" x="0px" y="0px"
	 viewBox="0 0 46.3 48.2" enable-background="new 0 0 46.3 48.2" xml:space="preserve">
<g id="XMLID_32_">
	<path id="XMLID_37_" fill="none" stroke="#FFFFFF" stroke-width="2" stroke-miterlimit="10" d="M41.1,39.8c0,4-3.3,7.3-7.3,7.3H8.4
		c-4.1,0-7.3-3.3-7.3-7.3V12.5c0-4,3.3-7.3,7.3-7.3h25.3c4.1,0,7.3,3.3,7.3,7.3V39.8z"/>
	<path id="XMLID_36_" fill="none" stroke="#FFFFFF" stroke-width="2" stroke-miterlimit="10" d="M7.3,4.9c1.2-2.4,3.7-3.8,6.5-3.8
		h24.4c4,0,6.8,2.8,6.8,6.9v26.9c0,3.2-1.8,6-4.6,7"/>
	
		<line id="XMLID_35_" fill="none" stroke="#FFFFFF" stroke-width="2" stroke-miterlimit="10" x1="2.1" y1="39.1" x2="41.1" y2="39.1"/>
	
		<polygon id="XMLID_34_" fill="none" stroke="#FFFFFF" stroke-width="2" stroke-linecap="round" stroke-linejoin="round" stroke-miterlimit="10" points="
		5.3,31.1 37,31.1 27.3,9.8 19.9,19.3 15,17.2 	"/>
	<circle id="XMLID_33_" fill="none" stroke="#FFFFFF" stroke-width="2" stroke-miterlimit="10" cx="10.2" cy="11.6" r="2.4"/>
</g>
</svg>
