<?xml version="1.0" encoding="utf-8"?>
<!-- Generator: Adobe Illustrator 19.0.0, SVG Export Plug-In . SVG Version: 6.00 Build 0)  -->
<!DOCTYPE svg PUBLIC "-//W3C//DTD SVG 1.1//EN" "http://www.w3.org/Graphics/SVG/1.1/DTD/svg11.dtd">
<svg version="1.1" id="Layer_1" xmlns="http://www.w3.org/2000/svg" xmlns:xlink="http://www.w3.org/1999/xlink" x="0px" y="0px"
	 viewBox="0 0 38.4 48.9" enable-background="new 0 0 38.4 48.9" xml:space="preserve">
<path id="XMLID_63_" fill="none" stroke="#FFFFFF" stroke-width="2" stroke-linecap="round" stroke-linejoin="round" stroke-miterlimit="10" d="
	M36.2,38.2c0,5-3.5,9.4-8.5,9.4h-16c-5,0-9.5-4.4-9.5-9.4V23.6h34V38.2z"/>
<path id="XMLID_62_" fill="none" stroke="#FFFFFF" stroke-width="2" stroke-linecap="round" stroke-linejoin="round" stroke-miterlimit="10" d="
	M34.1,22.6v-8.4c0-7.7-5.8-12.6-13.5-12.6h-2c-7.7,0-14.5,4.9-14.5,12.6v8.4"/>
<path id="XMLID_54_" fill="#FFFFFF" d="M18.2,33.6v6.8c0,0.6,0.4,1,1,1s1-0.4,1-1v-6.8c0.6-0.3,1-1,1-1.7c0-1.1-0.9-2-2-2
	s-2,0.9-2,2C17.2,32.6,17.6,33.2,18.2,33.6z"/>
</svg>
