<?xml version="1.0" encoding="utf-8"?>
<!-- Generator: Adobe Illustrator 19.0.0, SVG Export Plug-In . SVG Version: 6.00 Build 0)  -->
<!DOCTYPE svg PUBLIC "-//W3C//DTD SVG 1.1//EN" "http://www.w3.org/Graphics/SVG/1.1/DTD/svg11.dtd">
<svg version="1.1" id="Layer_1" xmlns="http://www.w3.org/2000/svg" xmlns:xlink="http://www.w3.org/1999/xlink" x="0px" y="0px"
	 viewBox="0 0 49 49" enable-background="new 0 0 49 49" xml:space="preserve">
<g id="XMLID_42_">
	<g id="XMLID_38_">
		<path id="XMLID_13_" fill="#FFFFFF" d="M24.5,2.5c12.1,0,22,9.9,22,22c0,12.1-9.9,22-22,22c-12.1,0-22-9.9-22-22
			C2.5,12.4,12.3,2.5,24.5,2.5 M24.5,0.5c-13.3,0-24,10.7-24,24c0,13.3,10.7,24,24,24c13.3,0,24-10.7,24-24
			C48.5,11.2,37.7,0.5,24.5,0.5L24.5,0.5z"/>
	</g>
	
		<polygon id="XMLID_31_" fill="none" stroke="#FFFFFF" stroke-width="2" stroke-linecap="round" stroke-linejoin="round" stroke-miterlimit="10" points="
		17,14.1 35,24.5 17,34.9 	"/>
</g>
</svg>
