<svg id="Layer_1" data-name="Layer 1" xmlns="http://www.w3.org/2000/svg" viewBox="0 0 281.67 25.58"><defs><style>.cls-1{fill:#fff;}</style></defs><title>ren-horz-white</title><path class="cls-1" d="M10.52,17.09a3.75,3.75,0,0,1-3.93,4,5.71,5.71,0,0,1-4-1.81L0.25,23.37A9.45,9.45,0,0,0,7,25.85c5.13,0,8.87-2.78,8.87-8.69V0.31h-5.4V17.09ZM20.87,25.4H38.69V20.7H26.23V15H38.43v-4.7H26.23V5H38.69V0.31H20.87V25.4Zm22.32,0H61V20.7H48.55V15H60.74v-4.7H48.55V5H61V0.31H43.19V25.4Zm42.55-17c0-4.4-3-8.09-8.46-8.09H65.51V25.4h5.36v-9h6.42C82.72,16.45,85.74,12.76,85.74,8.4Zm-9.21,3.35H70.87V5h5.66c2.11,0,3.74,1.28,3.74,3.39S78.64,11.75,76.53,11.75ZM85.44,21a2.23,2.23,0,1,0,2.24,2.23A2.23,2.23,0,0,0,85.44,21Zm0,4.12a1.89,1.89,0,1,1,1.9-1.89A1.89,1.89,0,0,1,85.44,25.14Zm1-2.39A0.8,0.8,0,0,0,85.63,22h-1v2.56h0.36v-1h0.44l0.66,1h0.44l-0.69-1A0.75,0.75,0,0,0,86.46,22.75Zm-1.52.44v-0.9h0.69a0.45,0.45,0,1,1,0,.9H84.94Z" transform="translate(-0.25 -0.28)"/><path class="cls-1" d="M105.78,13.07m3.11,0" transform="translate(-0.25 -0.28)"/><path class="cls-1" d="M123,25.38l-6.42-10.07c3.24-.3,6.2-2.74,6.2-7.18A7.08,7.08,0,0,0,115.33.68h-9.56V25.38h3V15.57h4.78l6,9.81H123ZM115,12.86h-6.24V3.42H115a4.51,4.51,0,0,1,4.78,4.7A4.56,4.56,0,0,1,115,12.86Z" transform="translate(-0.25 -0.28)"/><path class="cls-1" d="M143,25.38V22.64H130.38V14.12h12.37V11.38H130.38v-8H143V0.68H127.43V25.38H143Z" transform="translate(-0.25 -0.28)"/><path class="cls-1" d="M167.27,25.38V0.68h-3V20L150.62,0.68h-3V25.38h3V5.68l13.87,19.69h2.85Z" transform="translate(-0.25 -0.28)"/><path class="cls-1" d="M188.53,25.38V22.64H175.91V14.12h12.37V11.38H175.91v-8h12.62V0.68H172.95V25.38h15.58Z" transform="translate(-0.25 -0.28)"/><path class="cls-1" d="M204.07,25.86a12.1,12.1,0,0,0,9.34-4.29V12.68H202.29v2.74h8.2v5a9.22,9.22,0,0,1-6.42,2.67c-5.21,0-9.16-4.18-9.16-10s4-10,9.16-10A8.65,8.65,0,0,1,211,6.42l2.35-1.55A11.17,11.17,0,0,0,204.07.28c-6.77,0-12.23,5.07-12.23,12.77S197.3,25.86,204.07,25.86Z" transform="translate(-0.25 -0.28)"/><path class="cls-1" d="M238.38,25.38L228.82,0.68h-3.67l-9.59,24.69h3.39l2.1-5.52h11.84l2.1,5.52h3.39ZM232,17.16H221.94l5-13.33Z" transform="translate(-0.25 -0.28)"/><path class="cls-1" d="M249.65,25.38c7.42,0,12.19-5.29,12.19-12.33S257.07,0.68,249.65.68h-8.13V25.38h8.13Zm0-2.74h-5.17V3.42h5.17c5.88,0,9.13,4.29,9.13,9.63S255.43,22.64,249.65,22.64Z" transform="translate(-0.25 -0.28)"/><path class="cls-1" d="M281.92,25.38V22.64H269.3V14.12h12.37V11.38H269.3v-8h12.62V0.68H266.34V25.38h15.58Z" transform="translate(-0.25 -0.28)"/></svg>