<svg id="Layer_1" data-name="Layer 1" xmlns="http://www.w3.org/2000/svg" viewBox="0 0 800 104.81"><defs><style>.cls-1{fill:#fff;}.cls-2{fill:#f573a0;}.cls-3{fill:#4100f5;}.cls-4{fill:#9bf0e1;}.cls-5{fill:#fae62d;}</style></defs><title>the-drop-main</title><path class="cls-1" d="M53.33,23.54v79.14H30.92V23.54H0V2.13H84.38V23.54H53.33Z"/><path class="cls-1" d="M174.72,102.68v-40H134.59v40H112.18V2.13h22.41V41.55h40.14V2.13h22.55V102.68H174.72Z"/><path class="cls-1" d="M233.15,102.68V2.13h63.68V23.26H255.56V42.4H293V62.12H255.56V81.41H297v21.27H233.15Z"/><path class="cls-2" d="M458.73,24.27L441,42c0-.07,0,0.2-0.05.13-3.65-12.83-14.27-18.68-26.73-18.68h-0.61v-22h1.61c19.55,0,35,8.46,43.36,22.6Z"/><path class="cls-3" d="M465.29,59.42c-3,28-22.39,44-50.19,44h-1.46v-22h0.61c13.33,0,24.55-7,27.39-22h23.65Z"/><polygon class="cls-2" points="413.64 81.42 413.64 103.42 380.48 103.42 402.64 81.03 402.64 81.42 413.64 81.42"/><polygon class="cls-4" points="413.64 1.42 413.64 23.42 402.64 23.42 402.64 59.42 380.64 59.42 380.64 1.42 413.64 1.42"/><polygon class="cls-5" points="402.64 59.42 402.64 81.03 380.48 103.42 380.64 103.42 380.64 59.42 402.64 59.42"/><path class="cls-5" d="M465.73,52.3a61.63,61.63,0,0,1-.37,6.87c0,0.18,0,.24-0.07.24H441.64a0.67,0.67,0,0,0,.12-0.39,38.77,38.77,0,0,0,.57-6.79A39.37,39.37,0,0,0,441,41.89l17.69-17.66C463.27,31.89,465.73,41.47,465.73,52.3Z"/><path class="cls-1" d="M526.57,65.24h-7.94v37.44H496.22V2.13h39.85c19.86,0,32.62,13.61,32.62,31.48,0,13.61-7.52,24-19.86,28.36l20.42,40.7H544.58ZM531.82,46C541,46,546,40.84,546,33.75c0-7.52-5-12.2-14.18-12.2H518.63V46h13.19Z"/><path class="cls-1" d="M645.28,0c28.22,0,52.19,20.56,52.19,52.47s-24,52.33-52.19,52.33-52.33-20.56-52.33-52.33S616.91,0,645.28,0Zm0,82.68c13.9,0,28.93-9.36,28.93-30.35s-15-30.49-28.93-30.49-29.07,9.5-29.07,30.49S631.24,82.68,645.28,82.68Z"/><path class="cls-1" d="M750.08,66.52v36.16H727.67V2.13h37.87C786,2.13,800,15.6,800,34.32c0,19-14,32.19-34.46,32.19H750.08Zm13.19-19.29c8.51,0,14.32-5,14.32-12.76,0-8.08-5.81-12.91-14.32-12.91h-13V47.23h13Z"/></svg>